<?xml version="1.0" encoding="utf-8"?>
<!-- Generator: Adobe Illustrator 19.2.0, SVG Export Plug-In . SVG Version: 6.00 Build 0)  -->
<svg version="1.1" id="Warstwa_1" xmlns="http://www.w3.org/2000/svg" xmlns:xlink="http://www.w3.org/1999/xlink" x="0px" y="0px"
	 viewBox="0 0 253.3 403.8" style="enable-background:new 0 0 253.3 403.8;" xml:space="preserve">
<style type="text/css">
	.st0{clip-path:url(#SVGID_2_);}
	.st1{display:none;fill:none;stroke:#000000;stroke-width:0.25;stroke-miterlimit:10;}
	.st2{fill:#FFFFFF;stroke:#000000;stroke-width:0.5;stroke-miterlimit:10;}
	.st3{fill:#242424;}
	.st4{fill:#EAEAEA;}
	.st5{display:none;}
	.st6{display:inline;}
	.st7{fill:#FFDE00;}
	.st8{fill:#3D3D3C;}
</style>
<g>
	<defs>
		<rect id="SVGID_1_" x="-20.4" width="273.7" height="403.8"/>
	</defs>
	<clipPath id="SVGID_2_">
		<use xlink:href="#SVGID_1_"  style="overflow:visible;"/>
	</clipPath>
	<g id="lama" class="st0">
		<path class="st1" d="M105.6,320c-0.1-3.5-25.8-57.2-33.9-73.4c-0.7-1.5,32.7-5.7,41.8-8.7c8.3,9.6,19,33.3,21,48.5
			c0.4,3,10.7,4.9,14.8,5.8c3.7,0.8,3.3-0.3,3.6-3.1c0.3-2.2-0.9-4.3-1.8-6.8c-4.4-12.1-0.8-19.9-4-22c-2.1-1.4-8.6,3.7-7.5,0.8
			c2.4-6.3,0.3-47.3-22.9-109.6c0,0-4.5,1.9-10.4-2c-7.4-4.9-7.1-12.9-14.7-18c-6.9-4.6-4.4-1.7-6.1-5.6c-1.9-4.3-4.2-8.2-2.4-9.6
			c1.8-1.5,16.5-7.4,16.5-7.4c-1.7-3.7-8.6-20.6,0.1-33.4c0,0-13.5-6.5-17.9-14.8c-4.1-7.7,0.6-35.4,13.7-43.2
			c4.4-2.7,2.4,0.8,13.7-2.6c11.8-3.6,14.2-8.1,20.7-7.8c20.2,0.8,30.2,10.8,37.8,17.5c0,0,1.4,10.9,0.2,16
			c-1.3,5.4-2.7,17.8-2.7,17.8c5.1,2.6,11.3,5.7,18.7,17.8c0.6,1,10.6-3.9,16-1.4c3.3,1.6,4.6,11.1,4.6,11.1
			c1.3,3.5-2.5,1.8-2.5,7.5c0.1,11.6,3.3,12.5,1.9,20.7c-0.6,3.2-1.2,6.7-2.2,7c-0.9,0.3,23.8,62,40.5,69.3
			c8.1,3.5,12.6,3.2,18.8,0.9c4.2-1.5,11.7-4.8,11.7-4.8c1.2,3.5,1.4,5.5,1.4,5.5c2.9-1.2,9.3-8.2,16.6-11.7l1.3,2.8
			c3.6-0.9,20.6-12.6,22.2-12.5l1.1,6c3.1,0.1,11-5.9,11.4-6c0,0,0.9,3.2,0.9,3.2c0.7,1.6,33.5,99.7,33.5,99.7s-196.2,71-197.1,70.8
			c-7.2-1-5-6.3-20.9-10c-4-0.9-7.1-1.9-12.5-3.1c-5.9-1.3-6.5-1.3-8.3-1.8C122.2,329.3,105.7,325.8,105.6,320z"/>
		<g id="body">
			<g>
				<path class="st2" d="M235.1,360.1c25.1,34.4,17.4,73.4,22.3,76.7c0.1,0.1,0.7,1,1.5,0.8c8.1-2.5,11.6-3.2,17.2-6c0,0,0,0,0,0
					c-10.8-30.9-5-59.1-16-90c4.7-1,27.5-8.6,32.1-9.6c0,0,0,0,0,0c3.8,2.7,7.4,4.1,11.2,6.8l4,2.8c0,0,0,0,0,0
					c-0.9-3.2-2.3-9.1-3.2-12.3c0,0,0,0,0,0c3.9,3.4,7.8,6.8,11.7,10.3c0,0,0,0,0,0c-1.6-3.2-3.1-6.5-4.7-9.7c0,0,0,0,0,0
					c4.8,1.2,9.5,2.4,14.3,3.6c0,0,0,0,0,0c-3.8-5.2-7.6-10.5-11.4-15.8c0,0,0,0,0,0c3.5-3,13.2-5.3,11.5-8.8c0,0,0-0.1,0.1,0
					c28.6,37.8,36.3,61.5,49,96.2c0,0,0,0,0,0c7.6-3.1,8.7-2.9,16.2-6.1c0,0,0,0,0,0c-9.4-26.2-22.7-72-31.8-97.3
					c-0.2-0.5,15.9,6.6,15.8,6.2c9,26.3,15.8,61.6,24.8,87.9c0,0,0,0,0,0c7.6-3.4,9.7-3,17.2-6.4c0,0,0,0,0,0
					c-14-39-9.3-83.2-20.2-113.5c0,0,0,0,0,0c1.7,0.1,3.4,0.3,5.1,0.4c0,0,0,0,0,0c-3.8-5-7.7-10.1-11.5-15c0.8-1.7-0.1-2.8-0.6-4.4
					c-0.2-0.7,0.4-1.4,1.1-1.2l2.2,0.5c0.9,0.2,1.6-0.7,1.2-1.5c-4.8-11.7-9.7-23.5-14.5-35.3c0,0,0,0,0,0c2.2-0.4,4.3-0.8,6.4-1.1
					c0,0,0,0,0,0c-5.6-9.1-10.9-18.2-16.4-27.3c0,0,0,0,0,0c10.9-3.9,13.1-12.3,20.2-14.9c0,0,0,0,0,0c-2.2-1.1-4.6-2.1-6.8-3.1
					c0.1-2.3,0.1-4.6,0.2-6.9c0,0,0,0,0,0c-3.2,0.4-6.3,0.8-9.5,1.1c0,0,0,0,0,0l-2.4-6.7c0,0,0,0,0,0c-6.7,4.5-13.4,9-20.1,13.5
					c-0.8,0.6-1.8-0.3-1.4-1.2c0,0,0,0,0-0.1c0.4-0.8-0.5-1.7-1.3-1.3c-5.8,3.2-11.6,6.4-17.5,9.5c-0.9,0.5-2-0.5-1.5-1.4
					c0.4-0.9-0.5-1.9-1.4-1.5c-6.3,2.5-12.5,5-18.8,7.4c0,0,0,0,0,0c-0.2-1.7-0.5-3.4-0.6-5.1c0,0,0,0,0,0
					c-7.2,3.8-14.4,7.5-21.7,11.3c0.2-0.7,0.3-1.4,0.4-2.1c-6.9,4.3-13.8,8.5-20.8,12.8c0,0,0,0,0,0c0.5-1.9,0.9-3.9,1.4-5.8
					c0,0,0,0,0,0c-70.9,25.5-61.9-114-109.2-136.3c1.5-1.6,1.4-32.6,1.4-32.6s-20.3-16.6-32.6-12.1c-1.7,0.6-8,3.2-9.7,3.8
					c0,0,0,0,0,0c4.2,11.7,22.5,22,28.5,38.7c-10.9,4.1-21.9,8.1-32.9,12.2c-5.4-15-4.1-34-9.6-49.3c0,0,0,0,0,0
					c-16.7,6-18.3,21.3-17.2,36.1c4.1,11.5,17.8,13.4,19.2,17.4c-5.9,7.8-6.6,17.8-5.2,24.6c15.8,44,47.2,102.6,45.9,147.8
					c0,0,0,0,0,0c0.2,1.4,0.3,2.8,0.5,4.1c0,0,0,0,0,0c2.5-1.3,5-2.6,7.4-3.9c0,0-1.9,24.3,0.7,31.8c0,0,0,0,0,0l3.2-9.6
					c0,0,0,0,0,0c2.2,7-4.7,29.6,5.3,28.8c-18.8,1.6-30.8-1.8-37.8-5.5c0,0-12.6-48.3-18.2-45.9c-8.5-0.2-25.4,4.9-25.4,4.9
					c15.1,27.6,21.7,43.9,29.6,59.5c1.1,2.2,2.9,6.1,7.1,9.2c6,4.5,12.8,2.8,18.4,4.4c17.7,4.8,29.9,10.8,43.2,17.9
					c8.3,4.4,9,15.9,11.1,15.2c2-0.6,0.5-8.2,2.5-8.8c3-0.9,8.6,14.8,13,14c3.6-0.7,3.6-12.2,5.8-12.3c2.8-0.1,4.3,19,8,19.2
					c3.6,0.2,6.7-18,8.3-17.7C231.1,352,230.7,354.1,235.1,360.1z"/>
			</g>
		</g>
		<g id="head">
			<g id="eye1">
				<g>
					
						<ellipse transform="matrix(0.9411 -0.338 0.338 0.9411 -34.4062 48.9132)" class="st3" cx="123.2" cy="123.3" rx="4.6" ry="4.6"/>
				</g>
			</g>
			<g id="eye2">
				<g>
					
						<ellipse transform="matrix(0.9411 -0.338 0.338 0.9411 -25.2481 65.0126)" class="st3" cx="174.1" cy="105" rx="4.6" ry="4.6"/>
				</g>
			</g>
			<g id="mouth_1_">
				<g id="Elipsa_3">
					<g>
						<path class="st4" d="M146.6,109c-8.9,3.2-11.3,13.2-7.2,23.1s11.5,16.3,20.3,13.2c8.9-3.2,10.1-12.5,6.5-22.5
							C162.6,112.7,155.4,105.8,146.6,109z"/>
					</g>
				</g>
				<g id="smile" class="st5">
					<g class="st6">
						<path class="st3" d="M156.5,122.8c-2.3,2.2-7.7,2.8-8.8,3.2c-1.9,0.7-4.9-1.1-4.9-1.1l0.2,0.7c0,0,3,2.6,5.1,1.8
							c2.4-0.9,6.8-1.6,8.6-3.8c1.6-1.9,2.1-3.6,2.1-3.6l-0.2-0.7C158.6,119.3,158.4,121.1,156.5,122.8z"/>
					</g>
				</g>
				<g id="face">
					<g>
						<path class="st3" d="M157.5,122.7c-3.9,2.1-8,3.9-12.5,5.2c-0.2,0.1-1.1,0.8-0.6,0.6c4.5-1.4,8.8-3.2,13-5.5
							C157.7,122.8,158.2,122.2,157.5,122.7L157.5,122.7z"/>
					</g>
				</g>
				<g id="cheek">
					<g>
						<path class="st3" d="M156.2,120.2c0.6,3.2,2.5,5.1,4.6,7.5c0.3,0.2,1.2-0.4,0.9-0.7c-2.1-2.4-3.9-4.3-4.5-7.4
							C157.1,119.3,156.1,119.8,156.2,120.2L156.2,120.2z"/>
					</g>
				</g>
				<g id="noseline">
					<g>
						<polygon class="st3" points="148.5,116.7 151.7,125.6 152.3,125.4 148.9,115.7 						"/>
					</g>
				</g>
				<g id="nose">
					<g>
						<path class="st3" d="M147.3,112.1c-3.5,1.3-5.7,4.2-4.8,6.6c0.9,2.4,4.1,1.7,7.6,0.4c3.5-1.3,6-2.7,5.2-5
							C154.4,111.8,150.9,110.9,147.3,112.1z"/>
					</g>
				</g>
			</g>
		</g>
		<g id="tie">
			<g>
				<path class="st3" d="M199,186.1c-3.4,0.1-15.4,14.2-15.4,14.2c-1.3-0.7-2.8-0.8-4.3-0.2s-2.6,1.6-3.2,2.9c0,0-18.5-3.7-20.8-0.9
					c-2.3,2.7,4,20.7,7.7,21.3c3.7,0.7,15.8-13.8,15.8-13.8c1.2,0.5,2.6,0.6,3.9,0.1c1.4-0.5,2.4-1.4,3-2.6c0,0,19.2,3.6,21,0.6
					C208.4,204.8,202.4,186,199,186.1z"/>
			</g>
		</g>
		<g id="glasses">
			<g>
				<path class="st3" d="M197.1,83.1c-0.3-0.8-0.6-1.5-1-2.2c-0.1-0.4-0.3-0.5-0.8-0.5c-0.3,0-0.5,0-0.7,0.1
					c-3.5,0.7-7,1.3-10.5,2.3c-2.8,0.7-5.4,1.6-8.2,2.4c-5.3,1.6-10.4,3.5-15.3,6.1c-3,1.5-5.9,3.2-8.5,5.3c-1.3,1.1-2.6,2.1-4,3.2
					c-2.1,1.6-4.4,2.9-7.1,3.2c-1.6,0.2-3.2,0.4-4.9,0.4c-2.9,0.1-5.8,0.1-8.7,0.7c-5.6,0.9-11.1,2.4-16,4.2
					c-4.1,1.5-7.6,2.9-11.1,4.7c-2.8,1.4-5.7,2.9-8.5,4.3c-0.6,0.3-1.2,0.8-1.7,1.1c-0.3,0.2-0.4,0.5-0.3,0.9
					c0.5,1.8,1.1,3.6,1.7,5.3c0.1,0.3,0.3,0.5,0.4,0.8c0.1,0.2,0.3,0.3,0.5,0.3s0.5,0.1,0.8,0.1c1.2,0.3,2,1.2,2.8,2.1
					c0.6,0.6,1,1.4,1.5,2.1c0.3,0.4,0.7,0.9,1,1.3c1.4,2.1,2.6,4.2,4,6.4c1.3,2,2.7,4,4.4,5.5c1.9,1.8,4.2,3,7,3.1
					c1.6,0.1,3.3-0.1,4.9-0.4c2.9-0.5,5.6-1.5,8.3-2.6c2.7-1.2,5.3-2.6,7.7-4.4c1.7-1.3,3.3-2.8,4.4-4.7c1.6-3,2.7-6.2,3.2-9.5
					c0.5-3.4,0.4-6.8,0.2-10.2c0-1-0.1-1.9-0.1-2.9c0-1.4,0.6-2.5,1.9-3.2c0.4-0.2,0.9-0.4,1.3-0.5c1-0.3,2.1-0.4,3,0.2
					c0.4,0.3,0.9,0.5,1.2,0.9c0.7,0.7,1.4,1.5,1.9,2.2c2.6,3.3,5.4,6.4,8.6,9.1c2.7,2.3,5.7,3.7,9.1,4.4c2.4,0.4,4.9,0.3,7.3-0.1
					c3.6-0.5,7.1-1.6,10.5-3c2.1-0.8,4-1.9,5.8-3.2c1.8-1.3,3.3-3.1,4-5.3c0.5-1.5,0.6-2.9,0.7-4.4c0.1-3.2-0.2-6.4-0.6-9.5
					c-0.2-1.5-0.3-3.1-0.6-4.6c-0.1-0.8-0.2-1.6-0.2-2.4c0-0.8-0.1-1.6,0-2.2c0.2-0.8,0.5-1.5,1.1-2c0.2-0.3,0.3-0.5,0.3-0.9
					c0-0.3-0.1-0.5-0.2-0.7C197.8,85.2,197.4,84.1,197.1,83.1z M95.3,120.8c-1.1,0.4-2.1,0.5-2.2,0.2c-0.1-0.3,0.7-0.9,1.8-1.3
					c1.1-0.4,2.1-0.5,2.2-0.2C97.3,119.9,96.4,120.4,95.3,120.8z M138.8,117.8c0.4,3.4,0.3,6.6-0.3,10c-0.3,1.8-0.8,3.5-1.6,5.2
					c-1.1,2.2-2.7,3.8-4.7,5.2c-4,2.7-8.3,4.6-13,5.5c-1,0.2-1.9,0.2-2.8,0.3c-2,0.2-3.7-0.4-5.2-1.6c-1.7-1.3-3.1-3-4.3-4.7
					c-1.5-2.3-2.8-4.8-4-7.5c-0.7-1.4-1.3-3-1.6-4.6c-0.2-0.8-0.4-1.6-0.5-2.4c-0.4-2.9,0.7-5.2,3-6.9c2.2-1.5,4.5-2.7,6.9-3.8
					c1.7-0.8,3.6-1.5,4.8-2.1c4.2-1.4,7.8-2.5,11.7-2.9c1.5-0.2,3.1-0.4,4.6-0.1c0.8,0.1,1.5,0.3,2.2,0.6c1.2,0.4,2.1,1.3,2.7,2.4
					C137.9,112.7,138.4,115.2,138.8,117.8z M194.9,108.6c0,1.6-0.3,3.2-1,4.6c-0.8,1.6-2.1,2.8-3.5,3.8c-1.8,1.3-3.8,2.1-5.8,2.9
					c-3.2,1.1-6.3,1.8-9.6,2.3c-3.2,0.4-6.2-0.3-9-2c-3.6-2.2-6.4-5.2-8.6-8.7c-1-1.7-2-3.3-2.6-5.2c-0.3-0.8-0.5-1.6-0.6-2.5
					c-0.3-2.1,0.3-3.8,1.9-5.1c1.5-1.4,3.3-2.5,5-3.6c1.9-1.2,3.9-2.3,6-3.2c1.6-0.7,3.3-1.3,4.4-1.8c4.5-1.4,8.5-2.5,12.8-2.7
					c0.8,0,1.5,0,2.3,0.1c0.7,0.1,1.4,0.3,1.9,0.9c0.6,0.5,1.2,1.1,1.7,1.8c0.6,0.7,1,1.6,1.4,2.5c0.6,1.4,1.2,2.8,1.6,4.3
					C194.3,100.8,194.9,104.7,194.9,108.6z M192.9,85.8c-1.1,0.4-2.1,0.5-2.2,0.2c-0.1-0.3,0.7-0.9,1.8-1.3c1.1-0.4,2.1-0.5,2.2-0.2
					C194.9,84.8,194.1,85.3,192.9,85.8z"/>
			</g>
		</g>
	</g>
	<g class="st0">
		<path class="st7" d="M119.1,190.2c1.3,0,2.1-2.1,0.7-3l-2-1.4c1.5,0.1,2.6-2.1,1-3c-0.4-0.2-0.8-0.4-1.2-0.7
			c-1.1-0.6-2.1-1.3-3.2-1.9c1.4,0.2,2.7-1.3,1.5-2.6c-0.4-0.4-0.7-0.8-1.1-1.1c0.1-0.4-0.1-0.9-0.5-1.3c-1.6-1.2-3.2-2.3-5.1-3.1
			c-1-0.5-2,0.1-2.3,0.9c-1.5-0.8-3-1.7-4.4-2.7c-1.4-0.9-2.9,0.8-2.2,2.1c-0.9-0.5-1.8-1-2.6-1.5c-1.4-0.8-2.6,0.6-2.3,1.8
			c-0.6-0.3-1.2-0.7-1.8-1c-1-0.6-2.1,0.1-2.3,1c-0.5-0.3-0.9-0.6-1.4-1c-1.5-1.1-3.3,1.3-2,2.5c0.9,0.8,1.8,1.6,2.8,2.3
			c-2.2-1.5-4.4-3-6.6-4.5c-1.4-1-2.9,0.9-2.2,2.2c-0.8-0.1-1.6,0.5-1.8,1.3c-0.8-0.6-1.6-1.1-2.5-1.7c-1.5-1-3.3,1.3-2,2.5
			c0.1,0.1,0.2,0.2,0.3,0.3c-0.6,0.5-0.8,1.4,0,2.2c2.7,3,5.5,5.9,8.5,8.6c-3.4-2.2-6.8-4.4-10.1-6.7c-1.2-0.9-2.7,0.6-2.4,1.8
			c-0.7,0.5-1.1,1.5-0.2,2.4c0.8,0.8,1.6,1.6,2.4,2.5c-1.2-0.9-2.4-1.8-3.8-2.6c-1.3-0.8-2.8,0.7-2.4,1.9c-0.5,0.3-0.9,0.8-1,1.4
			c-1.4-0.5-2.9,1.7-1.6,2.7c0.6,0.5,1.2,1,1.9,1.5c-0.4,0.6-0.5,1.3,0.2,1.9c0.3,0.2,0.6,0.5,0.8,0.7c-0.9,0.4-1.4,1.6-0.5,2.5
			c0.4,0.4,0.8,0.8,1.2,1.1c-0.7,0.6-1,1.7-0.1,2.4c0.7,0.6,1.4,1.2,2.1,1.8c-0.6,0.6-0.8,1.6-0.1,2.3c1,1,2.1,1.9,3.1,2.8
			c-0.6,0.7-0.7,1.8,0.3,2.5c1.8,1.3,3.6,2.5,5.5,3.8c-0.3,0.7-0.2,1.6,0.6,2.1c0.4,0.2,0.7,0.5,1.1,0.7c0.1,0.4,0.3,0.7,0.7,0.9
			l4.6,2.7c0.8,0.5,1.5,0.2,2-0.3c0.1,0.1,0.3,0.1,0.4,0.2c0.9,0.3,1.5-0.1,1.8-0.8c1,0.7,2,1.4,2.9,2.2c1.1,0.8,2.3-0.3,2.4-1.4
			c0.3,0.2,0.6,0.4,0.9,0.6c1.2,0.7,2.3-0.2,2.4-1.3c0.4-0.3,0.6-0.9,0.6-1.4c0.2,0.1,0.4,0.3,0.7,0.4c1.8,1.1,3.3-1.6,1.6-2.8
			c-0.5-0.3-1-0.7-1.5-1.1c0.1,0,0.2,0,0.3,0c0,0,0.1,0,0.1,0.1c1.8,0.7,2.7-2,1.2-2.9c-1.6-1.1-3.2-2.3-4.8-3.5
			c1.4,0.8,2.9,1.6,4.4,2.4c1.8,1,3.4-1.7,1.6-2.8c-2.2-1.3-4.3-2.8-6.3-4.3c3.8,2.7,7.7,5.2,11.8,7.5c1.8,1,3.4-1.7,1.6-2.8
			c-5.5-3.5-10.9-7-16.2-10.8c-0.9-0.7-1.9-1.4-2.8-2.2c5.6,3.4,11.3,6.7,17.1,9.9c1.4,0.7,2.6-0.6,2.4-1.8c0.9,0.5,1.9,1,2.8,1.5
			c1.8,1,3.4-1.8,1.6-2.8c-0.3-0.2-0.6-0.3-0.8-0.5c1.1-0.3,1.7-2.1,0.4-3c-1.4-0.9-2.8-1.9-4.2-2.8c0.8,0.4,1.6,0.8,2.4,1.3
			c1.4,0.7,2.6-0.6,2.4-1.8c0.3,0.2,0.5,0.3,0.8,0.5c1.8,1,3.3-1.6,1.6-2.8c-0.5-0.4-1-0.7-1.5-1.1c0.3,0.2,0.6,0.3,0.9,0.5
			c1.6,0.9,3.2-1.2,2-2.5C119.5,190.5,119.3,190.4,119.1,190.2z M106.7,197.7c-3.7-2.3-7.4-4.8-10.9-7.5l5.4,3.6
			C103.1,195.2,104.9,196.5,106.7,197.7z"/>
		<path class="st8" d="M107.8,173c-8.3-4.1-19.5-3.8-27.8,0.1c-8.4,3.9-12.7,13-11.8,22.1c0.5,5.4,3.2,9.6,7.2,13.1
			c4.4,4,8.8,7.8,11.7,13c0,0.1,0.1,0.1,0.2,0.2c-1.3,0-1.6,2-1,3c0.1,0.2,0.2,0.3,0.4,0.5c-0.9,0.6-1.1,1.9-0.6,2.9
			c0.2,0.3,0.4,0.6,0.6,0.8c-1.2,1.1-1.2,3.1-0.2,4.4c0.4,0.5,0.9,0.8,1.5,1.1c0.8,2.3,2.5,4.2,5,4.4c2,0.2,5.6-1.4,6.1-3.6
			c0-0.1,0-0.3,0-0.4c0.8-0.1,1.5-0.3,2.1-0.7c1.6-1.2,1.1-3.3-0.1-4.5c1.3-1,0.6-2.8-0.4-3.8c0.2-0.1,0.5-0.3,0.7-0.4
			c1.3-1.3,0.6-3-0.8-3.5c0-0.1,0-0.2-0.1-0.3c0.1-0.1,0.2-0.3,0.2-0.5c0.3-5.5,5.3-8.7,9.1-11.9c3.6-3.1,6.3-6.9,7.5-11.6
			C119.5,188.8,116.3,177.2,107.8,173z M87.8,222C87.8,222,87.8,222,87.8,222c2.5,0.4,5,0.4,7.5,0.6c1.2,0.1,2.7,0.3,3.9-0.1
			c0.1,0.1,0.2,0.2,0.3,0.2c0.5,1.2,0.4,1.9-0.4,1.9c-0.3,0-0.6,0.1-0.8,0.1c-0.4,0.1-0.8,0.1-1.2,0.1c-1.3,0.1-2.5,0.2-3.8,0.2
			c-1,0-2,0-3-0.1C89.2,225,85.4,223.9,87.8,222z M96.4,221.3c-1.7,0-3.4-0.1-5.1-0.1c-1-4.6-3.1-9.2-5.1-13.5
			c-1.1-2.3-2.3-4.5-3.5-6.6c-0.4-0.6-0.7-1.4-1.1-2.1c2.8-3.3,7.1-4.7,11.7-3.6c2.3,0.5,4.5,1.6,6.8,2.3c-0.8,1.9-1.5,3.9-2,5.9
			c-0.8,2.9-1.4,5.8-1.6,8.8C96,215.2,95.7,218.4,96.4,221.3z M92.8,237.3c-1.7-0.2-2.8-1.4-3.7-2.7c1.5,0.3,3.1,0.2,4.4,0.3
			c1.4,0.1,2.9,0,4.3-0.1c0,0,0,0,0.1,0C96.7,236.1,94.7,237.5,92.8,237.3z M99.7,233.1c-0.7,0.3-1.9,0.3-2.6,0.3
			c-1.4,0.1-2.8,0.1-4.1,0c-1.3-0.1-2.9,0-4.2-0.3c-1.9-0.5-2-2.3-1.5-3.8c1.5,1,3.7,1,5.3,1.1c1.5,0.1,3,0.1,4.5,0
			c0.8-0.1,1.8-0.1,2.7-0.4C100.6,230.9,101.5,232.2,99.7,233.1z M99.2,228.7c-0.5,0.2-1.2,0.2-1.7,0.3c-1.4,0.2-2.8,0.2-4.2,0.1
			c-1.3-0.1-2.8-0.1-4-0.4c-1.5-0.4-2.9-1.8-1.9-3.1c1.7,1.1,4.3,0.9,6.2,0.8c1.5,0,3-0.1,4.5-0.3c0.4,0,0.8-0.1,1.2-0.1
			c0,0.1,0.1,0.3,0.2,0.4C100.6,227.3,100.5,228.2,99.2,228.7z M115.7,197.5c-0.7,2.5-1.9,4.8-3.5,6.9c-1.7,2.2-3.8,3.8-5.9,5.5
			c-3.5,2.8-6.9,6.2-7.2,10.9c0,0.1,0,0.2,0.1,0.3c-0.6,0.1-1.3,0.2-1.9,0.2c0.2-2.9,0-5.8,0.3-8.6c0.3-2.9,0.9-5.8,1.6-8.7
			c0.6-2,1.3-4,2.1-6c0.1,0,0.2,0,0.3,0.1c1.6,0.3,4,0.4,4.6-1.4c0.2-0.5-0.4-0.9-0.8-0.7c-0.5,0.3-1,0.7-1.6,0.8
			c-0.6,0.1-1.3,0-1.9-0.1c0.1-0.3,0.3-0.6,0.4-0.9c1.3-2.6,3.1-5,4.4-7.6c0.3-0.6-0.4-1.4-1-0.8c-2,2-3.4,5-4.6,7.6
			c-0.2,0.4-0.4,0.9-0.6,1.3c-1.2-0.4-2.3-0.8-3.5-1.2c-2.9-1-6-1.8-9.1-1.3c-2.8,0.4-5.4,2-7.1,4.2c-0.6-1-1.3-1.9-2.1-2.5
			c-0.4-0.3-0.9,0.1-0.8,0.6c0.3,1.1,1,1.9,1.6,2.9c0.1,0.2,0.2,0.4,0.3,0.5c-0.6,1-1,2.1-1.2,3.3c-0.1,0.4,0.5,0.4,0.6,0.1
			c0.3-0.9,0.7-1.7,1.2-2.4c0.3,0.6,0.7,1.1,1,1.7c1.2,2.1,2.4,4.2,3.4,6.4c2.1,4.2,3.6,8.5,5.4,12.8c-0.8,0-1.6,0-2.5,0
			c0,0,0,0,0,0c0-0.1,0-0.1,0-0.2c-2-4.2-4.5-7.5-8-10.6c-3.4-3-7.1-5.8-8.9-10.1c-3.6-8.4-0.4-19.8,7.4-24.6
			c7.6-4.7,18.4-5.2,26.7-2.3C114.4,176.7,118.3,188.4,115.7,197.5z"/>
		<path class="st8" d="M70,214.5c-2.6,0.7-5.2,1.8-7.6,2.9c-0.7,0.3-0.4,1.7,0.6,1.3c2.4-1,5-2,7.4-3.2
			C70.8,215.2,70.6,214.4,70,214.5z"/>
		<path class="st8" d="M118.6,220.9c-1.8-1.9-4.1-3.6-6.2-5.2c-0.6-0.5-1.6,0.5-0.8,1.1c2.1,1.6,4.2,3.4,6.4,4.9
			C118.4,222,119,221.4,118.6,220.9z"/>
		<path class="st8" d="M62,178.1c-1.6-1.6-4.2-2-6.3-2.5c-2.8-0.7-5.4-1.7-8.1-2.6c-0.8-0.4-1.2,0.9-0.4,1.3
			c2.4,1.1,5.1,1.9,7.6,2.5c2.3,0.6,4.5,1.3,6.7,2.1C61.9,179,62.4,178.4,62,178.1z"/>
		<path class="st8" d="M83.9,163.9c-0.4-2.5-1.1-5-1.7-7.5c-0.6-2.2-0.9-5-2-6.9c-0.3-0.5-1-0.3-1,0.3c0,2.3,1.2,4.8,1.8,7
			c0.7,2.5,1.2,5,2.1,7.4C83.2,164.8,84,164.5,83.9,163.9z"/>
		<path class="st8" d="M111.9,152c-0.8,1.9-1,4-1.4,6c-0.4,2-0.8,4-1.1,6.1c-0.1,0.5,0.7,0.6,0.8,0.1c0.6-2,1-4.1,1.5-6.1
			c0.4-1.9,1.1-3.8,1.2-5.7C113,151.8,112.1,151.5,111.9,152z"/>
		<path class="st8" d="M123.9,201.8c1.7,1,3.9,1.5,5.8,2.1c1.9,0.6,3.9,1.3,5.9,1.8c0.5,0.1,0.6-0.6,0.2-0.8
			c-1.9-0.8-3.9-1.5-5.9-2.2c-1.8-0.6-3.7-1.6-5.5-1.9C123.8,200.6,123.4,201.5,123.9,201.8z"/>
		<path class="st8" d="M48.8,200.3c2-0.3,3.9-1.3,5.8-2.1c1.9-0.8,3.8-1.5,5.7-2.4c0.4-0.2,0.1-0.9-0.4-0.8c-2,0.6-4,1.4-6,2.1
			c-1.8,0.7-3.8,1.1-5.5,2.1C48,199.5,48.3,200.4,48.8,200.3z"/>
		<path class="st8" d="M135,170.8c-1.8,1.6-3.5,3.3-5.4,4.9c-1.9,1.6-3.8,3-5.7,4.5c-0.5,0.4,0,1,0.5,0.7c4-2.2,7.8-5.4,11-8.6
			c0.1,0,0.2-0.1,0.2-0.2c0.1-0.1,0.2-0.2,0.3-0.3C136.4,171.2,135.6,170.3,135,170.8z"/>
	</g>
</g>
</svg>
