<?xml version="1.0" encoding="utf-8"?>
<!-- Generator: Adobe Illustrator 19.2.0, SVG Export Plug-In . SVG Version: 6.00 Build 0)  -->
<svg version="1.1" id="Warstwa_1" xmlns="http://www.w3.org/2000/svg" xmlns:xlink="http://www.w3.org/1999/xlink" x="0px" y="0px"
	 viewBox="0 0 481.7 267.8" style="enable-background:new 0 0 481.7 267.8;" xml:space="preserve">
<style type="text/css">
	.st0{clip-path:url(#SVGID_2_);}
	.st1{display:none;fill:none;stroke:#000000;stroke-width:0.25;stroke-miterlimit:10;}
	.st2{fill:#FFFFFF;stroke:#000000;stroke-width:0.5;stroke-miterlimit:10;}
	.st3{fill:#242424;}
	.st4{fill:#EAEAEA;}
	.st5{display:none;}
	.st6{display:inline;}
	.st7{fill:#FFDE00;}
	.st8{fill:#3D3D3C;}
</style>
<g>
	<defs>
		<rect id="SVGID_1_" width="552.1" height="267.8"/>
	</defs>
	<clipPath id="SVGID_2_">
		<use xlink:href="#SVGID_1_"  style="overflow:visible;"/>
	</clipPath>
	<g id="lama" class="st0">
		<path class="st1" d="M145.7,289.3c1.1-3.3-5.5-62.5-7.9-80.4c-0.2-1.6,32.8,5.3,42.3,5.5c4.6,11.8,7,37.7,3.9,52.7
			c-0.6,2.9,8.5,8.2,12,10.3c3.2,2,3.2,0.8,4.5-1.7c1-2,0.6-4.3,0.6-7c-0.2-12.8,5.8-19,3.5-22.1c-1.5-2-9.3,0.7-7.4-1.7
			c4.3-5.2,15.8-44.5,14.4-111c0,0-4.9,0.3-9.2-5.3c-5.4-7-2.5-14.5-8-21.8c-5-6.6-3.6-3-3.9-7.3c-0.4-4.7-1.2-9.1,0.9-9.9
			c2.2-0.8,18-1.5,18-1.5c-0.4-4.1-1.4-22.3,11.1-31.5c0,0-10.6-10.6-12-19.8c-1.3-8.7,12.2-33.2,27.2-36.3c5-1.1,2,1.5,13.8,2
			c12.3,0.5,16-3,22.1-0.6c18.9,7.4,25,20.1,29.9,29c0,0-2.3,10.8-5.1,15.2c-3,4.7-8.4,16-8.4,16c4,4.1,8.8,9.1,11.9,22.9
			c0.3,1.2,11.3-0.2,15.5,3.9c2.6,2.6,0.7,12,0.7,12c0.1,3.7-3,0.9-4.8,6.3c-3.7,11-1,12.9-5,20.2c-1.6,2.8-3.4,5.9-4.4,5.9
			c-0.9,0,2.1,66.4,15.5,78.7c6.5,5.9,10.8,7.1,17.5,7c4.5-0.1,12.6-0.7,12.6-0.7c0,3.7-0.5,5.6-0.5,5.6c3.2-0.2,11.5-4.7,19.5-5.6
			l0.3,3.1c3.7,0.3,23.6-5.1,25.1-4.5l-0.9,6c2.9,1.2,12.3-2,12.8-1.9c0,0-0.2,3.3-0.2,3.3c0.2,1.8-1.1,105.2-1.1,105.2
			s-208.6,2.5-209.4,2.2c-6.4-3.3-2.6-7.6-16.4-16.3c-3.5-2.2-6-4.1-10.8-7c-5.2-3.2-5.7-3.4-7.3-4.4
			C158.4,303.6,143.9,294.8,145.7,289.3z"/>
		<g id="body">
			<g>
				<path class="st2" d="M254.9,369.8c12.4,40.7-7.7,75.1-4.1,79.7c0.1,0.1,0.3,1.2,1.1,1.2c8.4,0.3,12,0.8,18.2,0c0,0,0,0,0,0
					c-0.1-32.7,14.7-57.5,14.5-90.3c4.7,0.6,28.8,0.9,33.5,1.5c0,0,0,0,0,0c2.7,3.8,5.6,6.3,8.3,10.1l2.8,3.9c0,0,0,0,0,0
					c0.2-3.4,0.8-9.4,1-12.7c0,0,0,0,0,0c2.6,4.5,5.1,9,7.7,13.6c0,0,0,0,0,0c-0.4-3.6-0.8-7.1-1.2-10.7c0,0,0,0,0,0
					c4.1,2.7,8.2,5.4,12.3,8.1c0,0,0,0,0,0c-1.9-6.2-3.7-12.5-5.6-18.7c0,0,0,0,0,0c4.3-1.6,14.2-0.7,13.8-4.5c0,0,0.1-0.1,0.1,0
					c14.6,45.1,14.1,70,14.6,107c0,0,0,0,0,0c8.2-0.5,9.2,0.1,17.3-0.4c0,0,0,0,0,0c-0.3-27.9,2.2-75.5,2-102.3
					c0-0.5,12.9,11.5,12.9,11.1c-0.1,27.8-5.3,63.4-5.4,91.2c0,0,0,0,0,0c8.3-0.7,10.1,0.3,18.4-0.4c0,0,0,0,0,0
					c-0.4-41.4,18.5-81.6,18.2-113.9c0,0,0,0,0,0c1.6,0.7,3.1,1.4,4.7,2.1c0,0,0,0,0,0c-2-6-3.9-12-5.9-17.9
					c1.3-1.3,0.9-2.7,0.9-4.3c0-0.7,0.8-1.2,1.4-0.8l1.9,1.2c0.8,0.5,1.7-0.1,1.7-1c-0.7-12.7-1.4-25.4-2.1-38.1c0,0,0,0,0,0
					c2.2,0.4,4.3,0.7,6.5,1c0,0,0,0,0,0c-2.3-10.4-4.4-20.8-6.5-31.2c0,0,0,0,0,0c11.6-0.1,16.4-7.3,24-7.4c0,0,0,0,0,0
					c-1.8-1.7-3.6-3.5-5.4-5.2c0.9-2.2,1.6-4.3,2.5-6.4c0,0,0,0,0,0c-3.1-0.7-6.2-1.4-9.3-2.1c0,0,0,0,0,0l-0.1-7.1c0,0,0,0,0,0
					c-7.8,2.1-15.6,4.1-23.4,6.2c-1,0.3-1.6-0.9-0.9-1.6c0,0,0,0,0,0c0.7-0.6,0.1-1.8-0.8-1.6c-6.6,1.1-13.1,2.2-19.6,3.2
					c-1,0.2-1.7-1.1-1-1.9c0.7-0.7,0.2-1.9-0.8-1.9c-6.7,0.3-13.5,0.6-20.2,0.8c0,0,0,0,0,0c0.4-1.7,0.7-3.3,1.1-5c0,0,0,0,0,0
					c-8,1.2-16.1,2.3-24.2,3.5c0.4-0.6,0.7-1.2,1.1-1.8c-8,1.8-15.8,3.5-23.8,5.3c0,0,0,0,0,0c1.1-1.7,2.1-3.4,3.2-5c0,0,0,0,0,0
					c-75.4,0.7-21-128.1-58.3-164.6c1.9-1.1,12-30.3,12-30.3S280.3,8.7,267.2,8.8c-1.8,0-8.6,0.4-10.4,0.4c0,0,0,0,0,0
					c0.1,12.5,14,28.2,14.2,45.9c-11.7,0.3-23.4,0.5-35.1,0.7c-0.2-15.9,7.2-33.4,7.1-49.7c0,0,0,0,0,0
					c-17.7,0.2-24.3,14.1-28.1,28.4c0.1,12.2,12.4,18.5,12.4,22.8c-8.2,5.4-12.1,14.7-13,21.5c0.5,46.7,10.9,112.4-5.2,154.7
					c0,0,0,0,0,0c-0.3,1.4-0.6,2.7-0.8,4.1c0,0,0,0,0,0c2.8-0.4,5.6-0.9,8.3-1.3c0,0-9.8,22.3-9.8,30.3c0,0,0,0,0,0l6.2-8
					c0,0,0,0,0,0c-0.2,7.4-14.1,26.5-4.5,28.9c-18.3-4.6-28.5-11.8-33.9-17.6c0,0,4-49.8-2.1-49.4c-7.9-3-25.6-3.7-25.6-3.7
					c5.2,31,6.1,48.6,8.4,65.9c0.3,2.4,0.8,6.7,3.7,11c4.2,6.2,11.1,6.9,16,10.2c15.1,10.3,24.7,20,34.9,31.1c6.4,6.9,3.2,18,5.5,18
					c2.1,0,3.1-7.6,5.2-7.5c3.1,0.1,3.3,16.8,7.6,17.5c3.6,0.6,7.4-10.3,9.5-9.7c2.7,0.8-2.2,19.4,1.3,20.7
					c3.4,1.3,12.2-14.8,13.7-14C253.7,360.8,252.7,362.6,254.9,369.8z"/>
			</g>
		</g>
		<g id="head">
			<g id="eye1">
				<g>
					
						<ellipse transform="matrix(1 -9.976756e-03 9.976756e-03 1 -1.0788 2.2709)" class="st3" cx="227.1" cy="109.3" rx="4.6" ry="4.6"/>
				</g>
			</g>
			<g id="eye2">
				<g>
					
						<ellipse transform="matrix(1 -9.976756e-03 9.976756e-03 1 -1.0707 2.8094)" class="st3" cx="281.1" cy="108.7" rx="4.6" ry="4.6"/>
				</g>
			</g>
			<g id="mouth_1_">
				<g id="Elipsa_3">
					<g>
						<path class="st4" d="M253.8,103.5c-9.4,0.1-15,8.8-14.4,19.4c0.6,10.6,5.5,19.2,14.8,19.1c9.4-0.1,13.7-8.5,13.5-19.1
							C267.7,112.2,263.2,103.4,253.8,103.5z"/>
					</g>
				</g>
				<g id="smile" class="st5">
					<g class="st6">
						<path class="st3" d="M258.6,119.8c-2.9,1.3-8.2,0.1-9.3,0.1c-2,0.1-4.3-2.7-4.3-2.7l0,0.7c0,0,2,3.4,4.3,3.4
							c2.6,0,7,0.7,9.3-0.8c2.1-1.3,3.2-2.7,3.2-2.7l0-0.7C261.8,117.1,261,118.7,258.6,119.8z"/>
					</g>
				</g>
				<g id="face">
					<g>
						<path class="st3" d="M259.6,120c-4.4,0.7-8.9,1-13.5,0.9c-0.2,0-1.3,0.4-0.8,0.4c4.7,0.1,9.3-0.2,14-0.9
							C259.8,120.2,260.4,119.8,259.6,120L259.6,120z"/>
					</g>
				</g>
				<g id="cheek">
					<g>
						<path class="st3" d="M259.2,117.2c-0.4,3.2,0.7,5.7,1.8,8.6c0.2,0.3,1.3,0,1.1-0.3c-1.1-2.9-2.3-5.3-1.8-8.5
							C260.4,116.7,259.3,116.8,259.2,117.2L259.2,117.2z"/>
					</g>
				</g>
				<g id="noseline">
					<g>
						<polygon class="st3" points="253,111.4 253.1,120.8 253.9,120.8 253.8,110.6 						"/>
					</g>
				</g>
				<g id="nose">
					<g>
						<path class="st3" d="M253.5,106.7c-3.8,0-6.8,2.1-6.7,4.6c0,2.6,3.3,2.9,7.1,2.9c3.8,0,6.5-0.5,6.5-3
							C260.3,108.7,257.2,106.6,253.5,106.7z"/>
					</g>
				</g>
			</g>
		</g>
		<g id="tie">
			<g>
				<path class="st3" d="M278,193.6c-3.3-1-19.2,8.3-19.2,8.3c-1-1-2.4-1.7-4-1.6c-1.6,0-3,0.7-4,1.7c0,0-16.2-9.6-19.3-7.7
					c-3,1.8-3,20.9,0.2,22.7c3.2,1.9,19.5-7.9,19.5-7.9c1,0.9,2.3,1.4,3.7,1.4c1.4,0,2.7-0.6,3.7-1.5c0,0,16.9,9.7,19.6,7.5
					C280.7,214.2,281.2,194.6,278,193.6z"/>
			</g>
		</g>
		<g id="glasses">
			<g>
				<path class="st3" d="M310,95.6c0-0.8-0.1-1.6-0.2-2.4c0-0.4-0.2-0.6-0.6-0.7c-0.2-0.1-0.5-0.2-0.7-0.2c-3.5-0.5-7-1-10.6-1.3
					c-2.9-0.2-5.7-0.3-8.5-0.4c-5.5-0.2-10.9-0.1-16.4,0.7c-3.3,0.4-6.6,1.1-9.8,2.2c-1.6,0.6-3.2,1.1-4.9,1.7
					c-2.5,0.8-5.1,1.2-7.7,0.7c-1.6-0.3-3.1-0.7-4.7-1.2c-2.8-0.9-5.5-1.8-8.5-2.2c-5.6-1-11.3-1.4-16.5-1.3c-4.3,0-8.1,0.2-12,0.8
					c-3.1,0.4-6.3,0.9-9.4,1.3c-0.6,0.1-1.4,0.3-2,0.5c-0.3,0.1-0.6,0.3-0.6,0.7c-0.1,1.8-0.1,3.8-0.1,5.6c0,0.3,0.1,0.6,0.1,0.9
					c0,0.2,0.2,0.4,0.4,0.5s0.5,0.2,0.7,0.4c1,0.7,1.5,1.8,1.9,2.9c0.3,0.8,0.5,1.7,0.7,2.5c0.2,0.5,0.3,1,0.5,1.5
					c0.6,2.5,1.1,4.9,1.7,7.3c0.6,2.3,1.2,4.6,2.4,6.7c1.2,2.4,3,4.2,5.6,5.2c1.5,0.6,3.1,1,4.7,1.2c2.9,0.5,5.8,0.4,8.7,0.2
					c3-0.3,5.8-0.7,8.7-1.6c2.1-0.7,4.1-1.6,5.7-3c2.5-2.3,4.6-4.9,6.1-8c1.6-3.1,2.7-6.3,3.6-9.5c0.3-1,0.5-1.8,0.9-2.8
					c0.5-1.4,1.4-2.2,2.9-2.4c0.5-0.1,1-0.1,1.4-0.1c1,0.1,2.1,0.3,2.8,1.2c0.3,0.4,0.6,0.8,0.8,1.3c0.4,0.9,0.8,1.8,1.1,2.7
					c1.3,4,3,7.8,5.1,11.4c1.8,3,4.1,5.4,7.2,7.1c2.2,1.2,4.5,1.9,6.9,2.3c3.6,0.7,7.3,0.8,10.9,0.6c2.2-0.1,4.4-0.4,6.5-1.1
					c2.1-0.7,4.1-1.8,5.6-3.6c0.9-1.2,1.6-2.6,2.1-3.9c1.2-3,1.9-6.1,2.5-9.1c0.3-1.5,0.7-3,1-4.6c0.2-0.8,0.4-1.6,0.6-2.3
					c0.2-0.7,0.4-1.5,0.8-2.1c0.5-0.6,0.9-1.3,1.7-1.5c0.3-0.2,0.5-0.3,0.6-0.7c0.1-0.2,0.1-0.5,0.1-0.7C310,97.8,310,96.7,310,95.6
					z M201.5,97.8c-1.2,0-2.2-0.2-2.2-0.5s1-0.6,2.2-0.6c1.2,0,2.2,0.2,2.2,0.5S202.7,97.8,201.5,97.8z M243.5,109.3
					c-0.8,3.3-1.9,6.3-3.6,9.3c-0.9,1.6-1.9,3.1-3.2,4.3c-1.7,1.7-3.8,2.7-6.1,3.3c-4.6,1.2-9.3,1.6-14.1,0.9
					c-1-0.2-1.8-0.4-2.8-0.6c-1.9-0.5-3.4-1.6-4.4-3.2c-1.2-1.8-2-3.8-2.5-5.9c-0.7-2.7-1.1-5.5-1.4-8.4c-0.2-1.6-0.2-3.3,0-4.9
					c0.1-0.8,0.1-1.7,0.3-2.5c0.6-2.9,2.3-4.7,5.1-5.5c2.5-0.7,5.2-1.1,7.8-1.4c1.9-0.2,3.9-0.3,5.2-0.4c4.5,0,8.2,0.2,12,1.1
					c1.5,0.3,3,0.6,4.4,1.4c0.7,0.4,1.4,0.8,1.9,1.3c1,0.8,1.5,1.9,1.7,3.2C244.4,104.1,244.1,106.7,243.5,109.3z M299.5,119
					c-0.5,1.5-1.3,2.9-2.4,4c-1.3,1.3-2.9,1.9-4.5,2.4c-2.2,0.6-4.3,0.8-6.5,0.8c-3.4,0-6.6-0.3-9.8-1c-3.2-0.7-5.8-2.3-7.9-4.9
					c-2.7-3.2-4.4-7-5.3-11c-0.4-1.9-0.8-3.8-0.8-5.7c0-0.9,0.1-1.7,0.2-2.6c0.4-2.1,1.6-3.4,3.5-4.2c1.9-0.8,3.9-1.3,5.9-1.7
					c2.2-0.5,4.5-0.8,6.7-1c1.8-0.1,3.5-0.2,4.7-0.3c4.7,0.2,8.9,0.5,13,1.6c0.7,0.2,1.4,0.5,2.2,0.9c0.6,0.3,1.2,0.8,1.5,1.5
					c0.4,0.7,0.7,1.4,1.1,2.2c0.3,0.9,0.4,1.8,0.5,2.8c0.1,1.5,0.2,3,0.1,4.6C301.5,111.4,300.8,115.2,299.5,119z M305.2,96.7
					c-1.2,0-2.2-0.2-2.2-0.5c0-0.3,1-0.6,2.2-0.6c1.2,0,2.2,0.2,2.2,0.5C307.4,96.5,306.4,96.7,305.2,96.7z"/>
			</g>
		</g>
	</g>
	<g class="st0">
		<path class="st7" d="M184.3,155.8c1.3,0,2.1-2.1,0.7-3l-2-1.4c1.5,0.1,2.6-2.1,1-3c-0.4-0.2-0.8-0.4-1.2-0.7
			c-1.1-0.6-2.1-1.3-3.2-1.9c1.4,0.2,2.7-1.3,1.5-2.6c-0.4-0.4-0.7-0.8-1.1-1.1c0.1-0.4-0.1-0.9-0.5-1.3c-1.6-1.2-3.2-2.3-5.1-3.1
			c-1-0.5-2,0.1-2.3,0.9c-1.5-0.8-3-1.7-4.4-2.7c-1.4-0.9-2.9,0.8-2.2,2.1c-0.9-0.5-1.8-1-2.6-1.5c-1.4-0.8-2.6,0.6-2.3,1.8
			c-0.6-0.3-1.2-0.7-1.8-1c-1-0.6-2.1,0.1-2.3,1c-0.5-0.3-0.9-0.6-1.4-1c-1.5-1.1-3.3,1.3-2,2.5c0.9,0.8,1.8,1.6,2.8,2.3
			c-2.2-1.5-4.4-3-6.6-4.5c-1.4-1-2.9,0.9-2.2,2.2c-0.8-0.1-1.6,0.5-1.8,1.3c-0.8-0.6-1.6-1.1-2.5-1.7c-1.5-1-3.3,1.3-2,2.5
			c0.1,0.1,0.2,0.2,0.3,0.3c-0.6,0.5-0.8,1.4,0,2.2c2.7,3,5.5,5.9,8.5,8.6c-3.4-2.2-6.8-4.4-10.1-6.7c-1.2-0.9-2.7,0.6-2.4,1.8
			c-0.7,0.5-1.1,1.5-0.2,2.4c0.8,0.8,1.6,1.6,2.4,2.5c-1.2-0.9-2.4-1.8-3.8-2.6c-1.3-0.8-2.8,0.7-2.4,1.9c-0.5,0.3-0.9,0.8-1,1.4
			c-1.4-0.5-2.9,1.7-1.6,2.7c0.6,0.5,1.2,1,1.9,1.5c-0.4,0.6-0.5,1.3,0.2,1.9c0.3,0.2,0.6,0.5,0.8,0.7c-0.9,0.4-1.4,1.6-0.5,2.5
			c0.4,0.4,0.8,0.8,1.2,1.1c-0.7,0.6-1,1.7-0.1,2.4c0.7,0.6,1.4,1.2,2.1,1.8c-0.6,0.6-0.8,1.6-0.1,2.3c1,1,2.1,1.9,3.1,2.8
			c-0.6,0.7-0.7,1.8,0.3,2.5c1.8,1.3,3.6,2.5,5.5,3.8c-0.3,0.7-0.2,1.6,0.6,2.1c0.4,0.2,0.7,0.5,1.1,0.7c0.1,0.4,0.3,0.7,0.7,0.9
			l4.6,2.7c0.8,0.5,1.5,0.2,2-0.3c0.1,0.1,0.3,0.1,0.4,0.2c0.9,0.3,1.5-0.1,1.8-0.8c1,0.7,2,1.4,2.9,2.2c1.1,0.8,2.3-0.3,2.4-1.4
			c0.3,0.2,0.6,0.4,0.9,0.6c1.2,0.7,2.3-0.2,2.4-1.3c0.4-0.3,0.6-0.9,0.6-1.4c0.2,0.1,0.4,0.3,0.7,0.4c1.8,1.1,3.3-1.6,1.6-2.8
			c-0.5-0.3-1-0.7-1.5-1.1c0.1,0,0.2,0,0.3,0c0,0,0.1,0,0.1,0.1c1.8,0.7,2.7-2,1.2-2.9c-1.6-1.1-3.2-2.3-4.8-3.5
			c1.4,0.8,2.9,1.6,4.4,2.4c1.8,1,3.4-1.7,1.6-2.8c-2.2-1.3-4.3-2.8-6.3-4.3c3.8,2.7,7.7,5.2,11.8,7.5c1.8,1,3.4-1.7,1.6-2.8
			c-5.5-3.5-10.9-7-16.2-10.8c-0.9-0.7-1.9-1.4-2.8-2.2c5.6,3.4,11.3,6.7,17.1,9.9c1.4,0.7,2.6-0.6,2.4-1.8c0.9,0.5,1.9,1,2.8,1.5
			c1.8,1,3.4-1.8,1.6-2.8c-0.3-0.2-0.6-0.3-0.8-0.5c1.1-0.3,1.7-2.1,0.4-3c-1.4-0.9-2.8-1.9-4.2-2.8c0.8,0.4,1.6,0.8,2.4,1.3
			c1.4,0.7,2.6-0.6,2.4-1.8c0.3,0.2,0.5,0.3,0.8,0.5c1.8,1,3.3-1.6,1.6-2.8c-0.5-0.4-1-0.7-1.5-1.1c0.3,0.2,0.6,0.3,0.9,0.5
			c1.6,0.9,3.2-1.2,2-2.5C184.6,156.2,184.5,156,184.3,155.8z M171.9,163.4c-3.7-2.3-7.4-4.8-10.9-7.5l5.4,3.6
			C168.2,160.9,170.1,162.1,171.9,163.4z"/>
		<path class="st8" d="M173,138.6c-8.3-4.1-19.5-3.8-27.8,0.1c-8.4,3.9-12.7,13-11.8,22.1c0.5,5.4,3.2,9.6,7.2,13.1
			c4.4,4,8.8,7.8,11.7,13c0,0.1,0.1,0.1,0.2,0.2c-1.3,0-1.6,2-1,3c0.1,0.2,0.2,0.3,0.4,0.5c-0.9,0.6-1.1,1.9-0.6,2.9
			c0.2,0.3,0.4,0.6,0.6,0.8c-1.2,1.1-1.2,3.1-0.2,4.4c0.4,0.5,0.9,0.8,1.5,1.1c0.8,2.3,2.5,4.2,5,4.4c2,0.2,5.6-1.4,6.1-3.6
			c0-0.1,0-0.3,0-0.4c0.8-0.1,1.5-0.3,2.1-0.7c1.6-1.2,1.1-3.3-0.1-4.5c1.3-1,0.6-2.8-0.4-3.8c0.2-0.1,0.5-0.3,0.7-0.4
			c1.3-1.3,0.6-3-0.8-3.5c0-0.1,0-0.2-0.1-0.3c0.1-0.1,0.2-0.3,0.2-0.5c0.3-5.5,5.3-8.7,9.1-11.9c3.6-3.1,6.3-6.9,7.5-11.6
			C184.6,154.4,181.4,142.8,173,138.6z M152.9,187.7C153,187.7,153,187.7,152.9,187.7c2.5,0.4,5,0.4,7.5,0.6
			c1.2,0.1,2.7,0.3,3.9-0.1c0.1,0.1,0.2,0.2,0.3,0.2c0.5,1.2,0.4,1.9-0.4,1.9c-0.3,0-0.6,0.1-0.8,0.1c-0.4,0.1-0.8,0.1-1.2,0.1
			c-1.3,0.1-2.5,0.2-3.8,0.2c-1,0-2,0-3-0.1C154.4,190.6,150.6,189.5,152.9,187.7z M161.6,187c-1.7,0-3.4-0.1-5.1-0.1
			c-1-4.6-3.1-9.2-5.1-13.5c-1.1-2.3-2.3-4.5-3.5-6.6c-0.4-0.6-0.7-1.4-1.1-2.1c2.8-3.3,7.1-4.7,11.7-3.6c2.3,0.5,4.5,1.6,6.8,2.3
			c-0.8,1.9-1.5,3.9-2,5.9c-0.8,2.9-1.4,5.8-1.6,8.8C161.2,180.9,160.9,184.1,161.6,187z M158,203c-1.7-0.2-2.8-1.4-3.7-2.7
			c1.5,0.3,3.1,0.2,4.4,0.3c1.4,0.1,2.9,0,4.3-0.1c0,0,0,0,0.1,0C161.9,201.8,159.9,203.2,158,203z M164.9,198.7
			c-0.7,0.3-1.9,0.3-2.6,0.3c-1.4,0.1-2.8,0.1-4.1,0c-1.3-0.1-2.9,0-4.2-0.3c-1.9-0.5-2-2.3-1.5-3.8c1.5,1,3.7,1,5.3,1.1
			c1.5,0.1,3,0.1,4.5,0c0.8-0.1,1.8-0.1,2.7-0.4C165.8,196.6,166.7,197.9,164.9,198.7z M164.4,194.4c-0.5,0.2-1.2,0.2-1.7,0.3
			c-1.4,0.2-2.8,0.2-4.2,0.1c-1.3-0.1-2.8-0.1-4-0.4c-1.5-0.4-2.9-1.8-1.9-3.1c1.7,1.1,4.3,0.9,6.2,0.8c1.5,0,3-0.1,4.5-0.3
			c0.4,0,0.8-0.1,1.2-0.1c0,0.1,0.1,0.3,0.2,0.4C165.8,193,165.7,193.9,164.4,194.4z M180.9,163.1c-0.7,2.5-1.9,4.8-3.5,6.9
			c-1.7,2.2-3.8,3.8-5.9,5.5c-3.5,2.8-6.9,6.2-7.2,10.9c0,0.1,0,0.2,0.1,0.3c-0.6,0.1-1.3,0.2-1.9,0.2c0.2-2.9,0-5.8,0.3-8.6
			c0.3-2.9,0.9-5.8,1.6-8.7c0.6-2,1.3-4,2.1-6c0.1,0,0.2,0,0.3,0.1c1.6,0.3,4,0.4,4.6-1.4c0.2-0.5-0.4-0.9-0.8-0.7
			c-0.5,0.3-1,0.7-1.6,0.8c-0.6,0.1-1.3,0-1.9-0.1c0.1-0.3,0.3-0.6,0.4-0.9c1.3-2.6,3.1-5,4.4-7.6c0.3-0.6-0.4-1.4-1-0.8
			c-2,2-3.4,5-4.6,7.6c-0.2,0.4-0.4,0.9-0.6,1.3c-1.2-0.4-2.3-0.8-3.5-1.2c-2.9-1-6-1.8-9.1-1.3c-2.8,0.4-5.4,2-7.1,4.2
			c-0.6-1-1.3-1.9-2.1-2.5c-0.4-0.3-0.9,0.1-0.8,0.6c0.3,1.1,1,1.9,1.6,2.9c0.1,0.2,0.2,0.4,0.3,0.5c-0.6,1-1,2.1-1.2,3.3
			c-0.1,0.4,0.5,0.4,0.6,0.1c0.3-0.9,0.7-1.7,1.2-2.4c0.3,0.6,0.7,1.1,1,1.7c1.2,2.1,2.4,4.2,3.4,6.4c2.1,4.2,3.6,8.5,5.4,12.8
			c-0.8,0-1.6,0-2.5,0c0,0,0,0,0,0c0-0.1,0-0.1,0-0.2c-2-4.2-4.5-7.5-8-10.6c-3.4-3-7.1-5.8-8.9-10.1c-3.6-8.4-0.4-19.8,7.4-24.6
			c7.6-4.7,18.4-5.2,26.7-2.3C179.6,142.4,183.5,154,180.9,163.1z"/>
		<path class="st8" d="M135.2,180.2c-2.6,0.7-5.2,1.8-7.6,2.9c-0.7,0.3-0.4,1.7,0.6,1.3c2.4-1,5-2,7.4-3.2
			C136,180.9,135.7,180,135.2,180.2z"/>
		<path class="st8" d="M183.8,186.6c-1.8-1.9-4.1-3.6-6.2-5.2c-0.6-0.5-1.6,0.5-0.8,1.1c2.1,1.6,4.2,3.4,6.4,4.9
			C183.6,187.7,184.2,187,183.8,186.6z"/>
		<path class="st8" d="M127.2,143.7c-1.6-1.6-4.2-2-6.3-2.5c-2.8-0.7-5.4-1.7-8.1-2.6c-0.8-0.4-1.2,0.9-0.4,1.3
			c2.4,1.1,5.1,1.9,7.6,2.5c2.3,0.6,4.5,1.3,6.7,2.1C127.1,144.6,127.5,144.1,127.2,143.7z"/>
		<path class="st8" d="M149.1,129.6c-0.4-2.5-1.1-5-1.7-7.5c-0.6-2.2-0.9-5-2-6.9c-0.3-0.5-1-0.3-1,0.3c0,2.3,1.2,4.8,1.8,7
			c0.7,2.5,1.2,5,2.1,7.4C148.4,130.4,149.2,130.2,149.1,129.6z"/>
		<path class="st8" d="M177.1,117.7c-0.8,1.9-1,4-1.4,6c-0.4,2-0.8,4-1.1,6.1c-0.1,0.5,0.7,0.6,0.8,0.1c0.6-2,1-4.1,1.5-6.1
			c0.4-1.9,1.1-3.8,1.2-5.7C178.2,117.4,177.3,117.1,177.1,117.7z"/>
		<path class="st8" d="M189.1,167.4c1.7,1,3.9,1.5,5.8,2.1c1.9,0.6,3.9,1.3,5.9,1.8c0.5,0.1,0.6-0.6,0.2-0.8
			c-1.9-0.8-3.9-1.5-5.9-2.2c-1.8-0.6-3.7-1.6-5.5-1.9C189,166.3,188.6,167.1,189.1,167.4z"/>
		<path class="st8" d="M114,166c2-0.3,3.9-1.3,5.8-2.1c1.9-0.8,3.8-1.5,5.7-2.4c0.4-0.2,0.1-0.9-0.4-0.8c-2,0.6-4,1.4-6,2.1
			c-1.8,0.7-3.8,1.1-5.5,2.1C113.2,165.2,113.4,166.1,114,166z"/>
		<path class="st8" d="M200.1,136.5c-1.8,1.6-3.5,3.3-5.4,4.9c-1.9,1.6-3.8,3-5.7,4.5c-0.5,0.4,0,1,0.5,0.7c4-2.2,7.8-5.4,11-8.6
			c0.1,0,0.2-0.1,0.2-0.2c0.1-0.1,0.2-0.2,0.3-0.3C201.5,136.9,200.7,136,200.1,136.5z"/>
	</g>
</g>
</svg>
