<?xml version="1.0" encoding="utf-8"?>
<!-- Generator: Adobe Illustrator 19.2.0, SVG Export Plug-In . SVG Version: 6.00 Build 0)  -->
<svg version="1.1" id="logo" xmlns="http://www.w3.org/2000/svg" xmlns:xlink="http://www.w3.org/1999/xlink" x="0px" y="0px"
	 viewBox="0 0 1000 238" style="enable-background:new 0 0 1000 238;" xml:space="preserve">
<style type="text/css">
	.st0{fill:#0072BC;}
	.st1{fill:#FFFFFF;}
	.st2{font-family:'OpenSans-Semibold';}
	.st3{font-size:180.2566px;}
</style>
<g id="x">
	<g id="bracket_1_">
		<g>
			<path class="st0" d="M972,80.6c-4-12.2-9.8-23.3-17.4-33.3c-7.6-10-15.9-17.3-24.9-21.8l-4.5,8.7c6.8,4.1,8.1,8.7,14.1,17.7
				s10.7,19.1,14.2,30.5c3.4,11.4,5.1,23.2,5.1,35.5c0,13.5-1.7,26.1-5.1,37.7c-3.4,11.6-8.1,21.7-14,30.4s-9.7,11.2-14.2,17.8
				l4.5,8.3c9.2-4.6,17.6-11.9,25.2-21.9c7.6-10,13.4-21,17.3-33.1c3.9-12,5.8-24.6,5.8-37.6C978,105.6,976,92.8,972,80.6z"/>
		</g>
	</g>
	<g id="X">
		<g>
			<text transform="matrix(1 0 0 1 805.5195 183.3001)" class="st1 st2 st3">X</text>
		</g>
	</g>
	<g id="bracket">
		<g>
			<path class="st0" d="M768.1,155.9c-3.4-11.6-5.1-24.2-5.1-37.7c0-12.3,1.7-24.1,5.1-35.5c3.4-11.4,8.1-21.6,14.2-30.6
				c6-9,7.3-13.7,14.1-17.7l-4.5-8.7c-9,4.6-17.3,11.9-24.9,21.9s-13.4,21.1-17.4,33.3s-6,25.2-6,38.9c0,13,1.9,25.6,5.8,37.7
				s9.6,23.1,17.3,33.1c7.6,10,16,17.3,25.2,22l4.5-8.3c-4.5-6.6-8.3-9.1-14.2-17.8C776.2,177.7,771.5,167.4,768.1,155.9z"/>
		</g>
	</g>
</g>
<g id="lambda">
	<g id="λ_1_">
		<g>
			<path class="st0" d="M125.4,164.1l-1.7,0.1l-3.3-0.1c-3.3-0.4-6.2-3.4-8.7-8.8L68.2,51.6c-2.1-5.1-5.2-9-9.3-11.7s-9.8-4-17.2-4
				c-4.8,0-9.2,0.5-13.2,1.5l0.3,17.3l2.8-0.2h3.5c5,0.2,8.6,2.7,10.9,7.4l9.3,20.7l-39.3,99h27l25.1-67.8l20.6,50.6
				c2.9,7,6.4,12,10.4,14.7c4,2.8,9.7,4.2,17.1,4.2c3.5,0,6.7-0.3,9.6-1L125.4,164.1z"/>
		</g>
	</g>
	<g>
		<path class="st1" d="M205.7,183.3l-4.1-13.6h-0.7c-4.7,5.9-9.4,10-14.2,12.1s-10.9,3.2-18.3,3.2c-9.6,0-17-2.6-22.4-7.7
			c-5.4-5.2-8.1-12.5-8.1-21.9c0-10,3.7-17.6,11.2-22.7c7.5-5.1,18.8-7.9,34.1-8.4l16.8-0.5v-5.2c0-6.2-1.5-10.9-4.4-14
			c-2.9-3.1-7.4-4.6-13.5-4.6c-5,0-9.8,0.7-14.3,2.2c-4.6,1.5-9,3.2-13.2,5.2l-6.7-14.8c5.3-2.8,11.1-4.9,17.3-6.3
			c6.3-1.4,12.2-2.2,17.8-2.2c12.4,0,21.7,2.7,28,8.1c6.3,5.4,9.5,13.9,9.5,25.4v65.6H205.7z M174.9,169.2c7.5,0,13.5-2.1,18.1-6.3
			c4.5-4.2,6.8-10.1,6.8-17.6v-8.4l-12.5,0.5c-9.7,0.4-16.8,2-21.3,4.9c-4.4,2.9-6.6,7.3-6.6,13.3c0,4.3,1.3,7.7,3.9,10.1
			C165.9,168,169.7,169.2,174.9,169.2z"/>
		<path class="st1" d="M331.4,183.3h-20.8v-60c0-7.5-1.4-13-4.2-16.7c-2.8-3.7-7.2-5.5-13.2-5.5c-8,0-13.8,2.6-17.6,7.8
			c-3.7,5.2-5.6,13.8-5.6,25.9v48.5h-20.7V86h16.2l2.9,12.8h1.1c2.7-4.6,6.6-8.2,11.8-10.7c5.1-2.5,10.8-3.8,16.9-3.8
			c15,0,24.9,5.1,29.7,15.3h1.4c2.9-4.8,6.9-8.6,12.1-11.3c5.2-2.7,11.2-4,18-4c11.6,0,20.1,2.9,25.4,8.8c5.3,5.9,8,14.8,8,26.8
			v63.5h-20.7v-60c0-7.5-1.4-13-4.3-16.7c-2.8-3.7-7.3-5.5-13.2-5.5c-8,0-13.9,2.5-17.6,7.5c-3.7,5-5.6,12.7-5.6,23.1V183.3z"/>
		<path class="st1" d="M471.4,84.2c12.1,0,21.6,4.4,28.4,13.2c6.8,8.8,10.2,21.2,10.2,37.1c0,16-3.4,28.4-10.3,37.3
			s-16.4,13.3-28.6,13.3c-12.3,0-21.9-4.4-28.7-13.3H441l-3.8,11.5h-15.5v-137h20.7v32.6c0,2.4-0.1,6-0.4,10.7
			c-0.2,4.8-0.4,7.8-0.5,9.1h0.9C448.9,89,458.6,84.2,471.4,84.2z M466,101.1c-8.3,0-14.3,2.5-18,7.3c-3.7,4.9-5.6,13.1-5.7,24.6
			v1.4c0,11.9,1.9,20.4,5.6,25.7c3.8,5.3,9.9,8,18.4,8c7.3,0,12.9-2.9,16.7-8.7c3.8-5.8,5.7-14.2,5.7-25.2
			C488.8,112.2,481.2,101.1,466,101.1z"/>
		<path class="st1" d="M566.8,185.1c-12.1,0-21.6-4.4-28.4-13.2c-6.8-8.8-10.2-21.2-10.2-37.1c0-16,3.4-28.4,10.3-37.3
			c6.9-8.9,16.4-13.3,28.6-13.3c12.8,0,22.5,4.7,29.2,14.2h1.1c-1-7-1.5-12.5-1.5-16.5V46.3h20.8v137h-16.2l-3.6-12.8h-1
			C589.3,180.2,579.6,185.1,566.8,185.1z M572.4,168.3c8.5,0,14.7-2.4,18.6-7.2c3.9-4.8,5.9-12.5,6-23.3V135c0-12.3-2-21-6-26.1
			c-4-5.2-10.2-7.7-18.7-7.7c-7.3,0-12.9,2.9-16.8,8.8c-3.9,5.9-5.9,14.3-5.9,25.2c0,10.8,1.9,19,5.7,24.7
			C559,165.5,564.7,168.3,572.4,168.3z"/>
		<path class="st1" d="M707.2,183.3l-4.1-13.6h-0.7c-4.7,5.9-9.4,10-14.2,12.1s-10.9,3.2-18.3,3.2c-9.6,0-17-2.6-22.4-7.7
			c-5.4-5.2-8.1-12.5-8.1-21.9c0-10,3.7-17.6,11.2-22.7c7.5-5.1,18.8-7.9,34.1-8.4l16.8-0.5v-5.2c0-6.2-1.5-10.9-4.4-14
			c-2.9-3.1-7.4-4.6-13.5-4.6c-5,0-9.8,0.7-14.3,2.2c-4.6,1.5-9,3.2-13.2,5.2l-6.7-14.8c5.3-2.8,11.1-4.9,17.3-6.3
			c6.3-1.4,12.2-2.2,17.8-2.2c12.4,0,21.7,2.7,28,8.1c6.3,5.4,9.5,13.9,9.5,25.4v65.6H707.2z M676.4,169.2c7.5,0,13.5-2.1,18.1-6.3
			c4.5-4.2,6.8-10.1,6.8-17.6v-8.4l-12.5,0.5c-9.7,0.4-16.8,2-21.3,4.9c-4.4,2.9-6.6,7.3-6.6,13.3c0,4.3,1.3,7.7,3.9,10.1
			C667.4,168,671.2,169.2,676.4,169.2z"/>
	</g>
</g>
</svg>
